<mxfile host="Electron" agent="Mozilla/5.0 (Windows NT 10.0; Win64; x64) AppleWebKit/537.36 (KHTML, like Gecko) draw.io/26.0.9 Chrome/128.0.6613.186 Electron/32.2.5 Safari/537.36" version="26.0.9">
  <diagram name="1 oldal" id="vTWri8GinwGDiqJxZCwF">
    <mxGraphModel dx="954" dy="657" grid="1" gridSize="10" guides="1" tooltips="1" connect="1" arrows="1" fold="1" page="1" pageScale="1" pageWidth="827" pageHeight="1169" math="0" shadow="0">
      <root>
        <mxCell id="0" />
        <mxCell id="1" parent="0" />
        <mxCell id="MgZ8XTKzgJ4DdwdAxNED-1" value="Alive" style="ellipse;whiteSpace=wrap;html=1;aspect=fixed;" parent="1" vertex="1">
          <mxGeometry x="200" y="200" width="80" height="80" as="geometry" />
        </mxCell>
        <mxCell id="MgZ8XTKzgJ4DdwdAxNED-3" value="Dead" style="ellipse;whiteSpace=wrap;html=1;aspect=fixed;" parent="1" vertex="1">
          <mxGeometry x="880" y="200" width="80" height="80" as="geometry" />
        </mxCell>
        <mxCell id="MgZ8XTKzgJ4DdwdAxNED-4" value="" style="ellipse;whiteSpace=wrap;html=1;aspect=fixed;fillColor=#000000;" parent="1" vertex="1">
          <mxGeometry x="160" y="300" width="20" height="20" as="geometry" />
        </mxCell>
        <mxCell id="MgZ8XTKzgJ4DdwdAxNED-5" value="" style="endArrow=classic;html=1;rounded=0;entryX=0;entryY=1;entryDx=0;entryDy=0;exitX=1;exitY=0;exitDx=0;exitDy=0;" parent="1" source="MgZ8XTKzgJ4DdwdAxNED-4" target="MgZ8XTKzgJ4DdwdAxNED-1" edge="1">
          <mxGeometry width="50" height="50" relative="1" as="geometry">
            <mxPoint x="230" y="290" as="sourcePoint" />
            <mxPoint x="440" y="320" as="targetPoint" />
          </mxGeometry>
        </mxCell>
        <mxCell id="MgZ8XTKzgJ4DdwdAxNED-6" value="" style="endArrow=classic;html=1;rounded=0;exitX=1;exitY=1;exitDx=0;exitDy=0;entryX=0;entryY=0.5;entryDx=0;entryDy=0;" parent="1" source="MgZ8XTKzgJ4DdwdAxNED-1" target="MgZ8XTKzgJ4DdwdAxNED-9" edge="1">
          <mxGeometry width="50" height="50" relative="1" as="geometry">
            <mxPoint x="390" y="370" as="sourcePoint" />
            <mxPoint x="360" y="330" as="targetPoint" />
          </mxGeometry>
        </mxCell>
        <mxCell id="MgZ8XTKzgJ4DdwdAxNED-8" value="bite()/&lt;br&gt;setIsDyingSinceBitten(0)" style="edgeLabel;html=1;align=center;verticalAlign=middle;resizable=0;points=[];rotation=35;" parent="MgZ8XTKzgJ4DdwdAxNED-6" vertex="1" connectable="0">
          <mxGeometry x="-0.0837" y="-3" relative="1" as="geometry">
            <mxPoint x="-4" y="11" as="offset" />
          </mxGeometry>
        </mxCell>
        <mxCell id="MgZ8XTKzgJ4DdwdAxNED-9" value="Bitten" style="ellipse;whiteSpace=wrap;html=1;aspect=fixed;" parent="1" vertex="1">
          <mxGeometry x="400" y="320" width="80" height="80" as="geometry" />
        </mxCell>
        <mxCell id="MgZ8XTKzgJ4DdwdAxNED-10" value="Disconnected" style="ellipse;whiteSpace=wrap;html=1;aspect=fixed;" parent="1" vertex="1">
          <mxGeometry x="400" y="80" width="80" height="80" as="geometry" />
        </mxCell>
        <mxCell id="MgZ8XTKzgJ4DdwdAxNED-14" value="" style="endArrow=classic;html=1;rounded=0;exitX=1;exitY=0;exitDx=0;exitDy=0;" parent="1" source="MgZ8XTKzgJ4DdwdAxNED-1" edge="1">
          <mxGeometry width="50" height="50" relative="1" as="geometry">
            <mxPoint x="320.00427124746193" y="221.7157287525381" as="sourcePoint" />
            <mxPoint x="400" y="120" as="targetPoint" />
          </mxGeometry>
        </mxCell>
        <mxCell id="MgZ8XTKzgJ4DdwdAxNED-15" value="traverseHypaNetwork()/&lt;br&gt;setIsDyingSinceDisconnected(0)" style="edgeLabel;html=1;align=center;verticalAlign=middle;resizable=0;points=[];rotation=-35;" parent="MgZ8XTKzgJ4DdwdAxNED-14" vertex="1" connectable="0">
          <mxGeometry x="-0.0837" y="-3" relative="1" as="geometry">
            <mxPoint x="-8" y="-20" as="offset" />
          </mxGeometry>
        </mxCell>
        <mxCell id="MgZ8XTKzgJ4DdwdAxNED-22" value="" style="endArrow=classic;html=1;rounded=0;exitX=0;exitY=1;exitDx=0;exitDy=0;entryX=1;entryY=0.5;entryDx=0;entryDy=0;" parent="1" source="MgZ8XTKzgJ4DdwdAxNED-10" target="MgZ8XTKzgJ4DdwdAxNED-1" edge="1">
          <mxGeometry width="50" height="50" relative="1" as="geometry">
            <mxPoint x="390" y="250" as="sourcePoint" />
            <mxPoint x="440" y="200" as="targetPoint" />
          </mxGeometry>
        </mxCell>
        <mxCell id="MgZ8XTKzgJ4DdwdAxNED-23" value="traverseHypaNetwork()/&lt;br&gt;setIsDyingSinceDisconnected(-1)" style="edgeLabel;html=1;align=center;verticalAlign=middle;resizable=0;points=[];rotation=-36;" parent="MgZ8XTKzgJ4DdwdAxNED-22" vertex="1" connectable="0">
          <mxGeometry x="-0.0192" relative="1" as="geometry">
            <mxPoint x="4" y="16" as="offset" />
          </mxGeometry>
        </mxCell>
        <mxCell id="MgZ8XTKzgJ4DdwdAxNED-24" value="Disconnected and bitten" style="ellipse;whiteSpace=wrap;html=1;aspect=fixed;" parent="1" vertex="1">
          <mxGeometry x="600" y="200" width="80" height="80" as="geometry" />
        </mxCell>
        <mxCell id="MgZ8XTKzgJ4DdwdAxNED-25" value="" style="endArrow=classic;html=1;rounded=0;entryX=0;entryY=0.5;entryDx=0;entryDy=0;exitX=1;exitY=1;exitDx=0;exitDy=0;" parent="1" source="MgZ8XTKzgJ4DdwdAxNED-10" target="MgZ8XTKzgJ4DdwdAxNED-24" edge="1">
          <mxGeometry width="50" height="50" relative="1" as="geometry">
            <mxPoint x="390" y="250" as="sourcePoint" />
            <mxPoint x="440" y="200" as="targetPoint" />
          </mxGeometry>
        </mxCell>
        <mxCell id="MgZ8XTKzgJ4DdwdAxNED-26" value="bite()/&lt;br&gt;setIsDyingSinceBitten(0)" style="edgeLabel;html=1;align=center;verticalAlign=middle;resizable=0;points=[];rotation=35;" parent="MgZ8XTKzgJ4DdwdAxNED-25" vertex="1" connectable="0">
          <mxGeometry x="-0.185" relative="1" as="geometry">
            <mxPoint x="14" y="-8" as="offset" />
          </mxGeometry>
        </mxCell>
        <mxCell id="MgZ8XTKzgJ4DdwdAxNED-31" value="" style="endArrow=classic;html=1;rounded=0;exitX=1;exitY=0.5;exitDx=0;exitDy=0;entryX=0;entryY=0;entryDx=0;entryDy=0;" parent="1" source="MgZ8XTKzgJ4DdwdAxNED-10" target="MgZ8XTKzgJ4DdwdAxNED-3" edge="1">
          <mxGeometry width="50" height="50" relative="1" as="geometry">
            <mxPoint x="390" y="250" as="sourcePoint" />
            <mxPoint x="440" y="200" as="targetPoint" />
            <Array as="points">
              <mxPoint x="720" y="120" />
            </Array>
          </mxGeometry>
        </mxCell>
        <mxCell id="MgZ8XTKzgJ4DdwdAxNED-32" value="endOfRoundAdminstration()&lt;br&gt;[isDyingSinceDisconnected = 1]" style="edgeLabel;html=1;align=center;verticalAlign=middle;resizable=0;points=[];rotation=0;" parent="MgZ8XTKzgJ4DdwdAxNED-31" vertex="1" connectable="0">
          <mxGeometry x="-0.0561" y="3" relative="1" as="geometry">
            <mxPoint x="-40" y="-13" as="offset" />
          </mxGeometry>
        </mxCell>
        <mxCell id="MgZ8XTKzgJ4DdwdAxNED-33" value="" style="endArrow=classic;html=1;rounded=0;entryX=0;entryY=1;entryDx=0;entryDy=0;exitX=1;exitY=0.5;exitDx=0;exitDy=0;" parent="1" source="MgZ8XTKzgJ4DdwdAxNED-9" target="MgZ8XTKzgJ4DdwdAxNED-3" edge="1">
          <mxGeometry width="50" height="50" relative="1" as="geometry">
            <mxPoint x="390" y="250" as="sourcePoint" />
            <mxPoint x="440" y="200" as="targetPoint" />
            <Array as="points">
              <mxPoint x="720" y="360" />
            </Array>
          </mxGeometry>
        </mxCell>
        <mxCell id="MgZ8XTKzgJ4DdwdAxNED-35" value="endOfRoundAdminstration() [isDyingSinceBitten = hypaDieAfterBite]/&lt;br&gt;die()" style="edgeLabel;html=1;align=center;verticalAlign=middle;resizable=0;points=[];rotation=0;" parent="MgZ8XTKzgJ4DdwdAxNED-33" vertex="1" connectable="0">
          <mxGeometry x="-0.0516" y="-5" relative="1" as="geometry">
            <mxPoint x="14" y="10" as="offset" />
          </mxGeometry>
        </mxCell>
        <mxCell id="MgZ8XTKzgJ4DdwdAxNED-36" value="" style="endArrow=classic;html=1;rounded=0;entryX=0;entryY=0.5;entryDx=0;entryDy=0;exitX=1;exitY=0.5;exitDx=0;exitDy=0;" parent="1" source="MgZ8XTKzgJ4DdwdAxNED-24" target="MgZ8XTKzgJ4DdwdAxNED-3" edge="1">
          <mxGeometry width="50" height="50" relative="1" as="geometry">
            <mxPoint x="390" y="250" as="sourcePoint" />
            <mxPoint x="440" y="200" as="targetPoint" />
          </mxGeometry>
        </mxCell>
        <mxCell id="MgZ8XTKzgJ4DdwdAxNED-39" value="endOfRoundAdministration()&lt;br&gt;[isDyingSinceDisconnected=1 ||&lt;br&gt;isDyingSinceBitten=hypaDieAfterBite]" style="edgeLabel;html=1;align=center;verticalAlign=middle;resizable=0;points=[];" parent="MgZ8XTKzgJ4DdwdAxNED-36" vertex="1" connectable="0">
          <mxGeometry x="-0.775" y="-1" relative="1" as="geometry">
            <mxPoint x="73" y="19" as="offset" />
          </mxGeometry>
        </mxCell>
        <mxCell id="MgZ8XTKzgJ4DdwdAxNED-45" value="" style="endArrow=classic;html=1;rounded=0;exitX=1;exitY=0;exitDx=0;exitDy=0;entryX=0;entryY=0.5;entryDx=0;entryDy=0;" parent="1" source="MgZ8XTKzgJ4DdwdAxNED-9" target="MgZ8XTKzgJ4DdwdAxNED-24" edge="1">
          <mxGeometry width="50" height="50" relative="1" as="geometry">
            <mxPoint x="468" y="332" as="sourcePoint" />
            <mxPoint x="600" y="240" as="targetPoint" />
          </mxGeometry>
        </mxCell>
        <mxCell id="MgZ8XTKzgJ4DdwdAxNED-46" value="traverseHypaNetwork()/&lt;br&gt;setIsDyingSinceDisconnected(0)" style="edgeLabel;html=1;align=center;verticalAlign=middle;resizable=0;points=[];rotation=-35;labelBackgroundColor=none;" parent="MgZ8XTKzgJ4DdwdAxNED-45" vertex="1" connectable="0">
          <mxGeometry x="-0.0837" y="-3" relative="1" as="geometry">
            <mxPoint x="-11" y="-18" as="offset" />
          </mxGeometry>
        </mxCell>
        <mxCell id="MgZ8XTKzgJ4DdwdAxNED-47" value="" style="endArrow=classic;html=1;rounded=0;exitX=0;exitY=1;exitDx=0;exitDy=0;entryX=1;entryY=0.5;entryDx=0;entryDy=0;" parent="1" source="MgZ8XTKzgJ4DdwdAxNED-24" target="MgZ8XTKzgJ4DdwdAxNED-9" edge="1">
          <mxGeometry width="50" height="50" relative="1" as="geometry">
            <mxPoint x="612" y="270" as="sourcePoint" />
            <mxPoint x="480" y="362" as="targetPoint" />
          </mxGeometry>
        </mxCell>
        <mxCell id="MgZ8XTKzgJ4DdwdAxNED-48" value="traverseHypaNetwork()/&lt;br&gt;setIsDyingSinceDisconnected(-1)" style="edgeLabel;html=1;align=center;verticalAlign=middle;resizable=0;points=[];rotation=-35;labelBackgroundColor=none;" parent="MgZ8XTKzgJ4DdwdAxNED-47" vertex="1" connectable="0">
          <mxGeometry x="-0.0192" relative="1" as="geometry">
            <mxPoint x="14" y="8" as="offset" />
          </mxGeometry>
        </mxCell>
        <mxCell id="MgZ8XTKzgJ4DdwdAxNED-49" value="" style="endArrow=classic;html=1;rounded=0;exitX=0.5;exitY=1;exitDx=0;exitDy=0;entryX=0.5;entryY=1;entryDx=0;entryDy=0;" parent="1" source="MgZ8XTKzgJ4DdwdAxNED-1" target="MgZ8XTKzgJ4DdwdAxNED-3" edge="1">
          <mxGeometry width="50" height="50" relative="1" as="geometry">
            <mxPoint x="490" y="370" as="sourcePoint" />
            <mxPoint x="540" y="320" as="targetPoint" />
            <Array as="points">
              <mxPoint x="240" y="440" />
              <mxPoint x="920" y="440" />
            </Array>
          </mxGeometry>
        </mxCell>
        <mxCell id="MgZ8XTKzgJ4DdwdAxNED-50" value="endOfRound() [end1 || end2 is Swamp and age&amp;gt;=3] /&amp;nbsp;&lt;br&gt;die()" style="edgeLabel;html=1;align=center;verticalAlign=middle;resizable=0;points=[];" parent="MgZ8XTKzgJ4DdwdAxNED-49" vertex="1" connectable="0">
          <mxGeometry x="0.0069" y="-2" relative="1" as="geometry">
            <mxPoint x="16" y="12" as="offset" />
          </mxGeometry>
        </mxCell>
      </root>
    </mxGraphModel>
  </diagram>
</mxfile>
